<?xml version="1.0" encoding="iso-8859-1"?>
<!-- Generator: Adobe Illustrator 19.0.0, SVG Export Plug-In . SVG Version: 6.00 Build 0)  -->
<svg version="1.1" id="Layer_1" xmlns="http://www.w3.org/2000/svg" xmlns:xlink="http://www.w3.org/1999/xlink" x="0px" y="0px"
	 viewBox="0 0 509.287 509.287" style="enable-background:new 0 0 509.287 509.287;" xml:space="preserve">
<circle style="fill:#4F5565;" cx="254.644" cy="254.644" r="254.644"/>
<path style="fill:#FBD303;" d="M438.421,124.779l-53.913-53.913c-7.121-7.121-16.954-10.511-26.787-9.155L250.575,75.952
	c-7.121,1.017-13.563,4.069-18.31,9.155L36.959,280.074c-12.546,12.546-12.546,32.89,0,45.097l147.158,147.158
	c12.546,12.546,32.89,12.546,45.097,0l195.306-195.306c5.086-5.086,8.138-11.528,9.155-18.31l14.241-107.147
	C448.932,141.732,445.542,131.56,438.421,124.779z M389.595,165.128c-12.546,12.546-32.89,12.546-45.436,0
	c-12.546-12.546-12.546-32.89,0-45.436s32.89-12.546,45.436,0C402.14,132.238,402.14,152.583,389.595,165.128z"/>
<path style="fill:#F8B517;" d="M347.55,258.713l-96.975-96.975c-6.103-6.103-15.597-6.103-21.362,0L96.975,293.637
	c-6.103,6.103-6.103,15.597,0,21.362l96.975,97.314c6.103,6.103,15.597,6.103,21.362,0l131.899-131.899
	C353.314,274.31,353.314,264.816,347.55,258.713z"/>
<g>
</g>
<g>
</g>
<g>
</g>
<g>
</g>
<g>
</g>
<g>
</g>
<g>
</g>
<g>
</g>
<g>
</g>
<g>
</g>
<g>
</g>
<g>
</g>
<g>
</g>
<g>
</g>
<g>
</g>
</svg>
